# xmcd
#
# Track frame offsets:
#	150
#	27080
#	43074
#	51461
#	60609
#	67375
#	76714
#	86215
#	96951
#	109882
#	126537
#	133150
#	145329
#	154115
#	172765
#	182589
#	194785
#
# Disc length: 2729 seconds
#
# Revision: 0
# Processed by: cddbd v1.5.2PL0 Copyright (c) Steve Scherf et al.
# Submitted via: dBpowerAMP V4.0
#
DISCID=010aa711
DTITLE=Willie Nelson - Willie And Family Live - CD 2
DYEAR=1978
DGENRE=Country
TTITLE0=Till I Gain Control Again
TTITLE1=Bloody Mary Morning
TTITLE2=I'm A Memory
TTITLE3=Mr. Record Man
TTITLE4=Hello Walls
TTITLE5=One Day At A Time
TTITLE6=Will The Circle Be Unbroken
TTITLE7=Amazing Grace
TTITLE8=Take This Job And Shove It
TTITLE9=Uncloudy Day
TTITLE10=The Only Daddy That'll Walk The Line
TTITLE11=A Song For You
TTITLE12=Roll In My Sweet Baby's Arms
TTITLE13=Georgia On My Mind
TTITLE14=I Gotta Get Drunk
TTITLE15=Whiskey River
TTITLE16=The Only Daddy That'll Walk The Line [reprise]
EXTD=
EXTT0=
EXTT1=
EXTT2=
EXTT3=
EXTT4=
EXTT5=
EXTT6=
EXTT7=
EXTT8=
EXTT9=
EXTT10=
EXTT11=
EXTT12=
EXTT13=
EXTT14=
EXTT15=
EXTT16=
PLAYORDER=
